# xmcd
# 
# Track frame offsets:
#     150
#     23745
#     40144
#     58915
#     73448
#     88922
#     108589
#     125146
#     139870
#     158349
#     176189
#     189395
#     200595
#     217953
#     227641
#     245108
#     266380
#     285866
#     300365
#     319072
# 
# Disc length: 4371
# 
# Revision: 2
# Processed by: cddbd v1.5.2PL0 Copyright (c) Steve Scherf et al.
# Submitted via: fre:ac v1.1beta1
# 
DISCID=27111114
DTITLE=Paul McCartney - Pure McCartney Disc 2
DYEAR=2016
DGENRE=Rock/Pop
TTITLE0=Band on the Run
TTITLE1=Arrow Through Me
TTITLE2=My Love
TTITLE3=Live and Let Die
TTITLE4=Too Much Rain
TTITLE5=Goodnight Tonight
TTITLE6=Say Say Say (2015 Remix) [Radio Edit]
TTITLE7=My Valentine
TTITLE8=The World Tonight
TTITLE9=Pipes of Peace
TTITLE10=Dance Tonight
TTITLE11=Here Today (Remixed 2015)
TTITLE12=Wanderlust (Remixed 2015)
TTITLE13=Great Day
TTITLE14=Coming Up
TTITLE15=No More Lonely Nights
TTITLE16=Only Mama Knows
TTITLE17=With a Little Luck (DJ Edit)
TTITLE18=Hope For The Future
TTITLE19=Junk
EXTD=YEAR: 2016
EXTT0=
EXTT1=
EXTT2=
EXTT3=
EXTT4=
EXTT5=
EXTT6=
EXTT7=
EXTT8=
EXTT9=
EXTT10=
EXTT11=
EXTT12=
EXTT13=
EXTT14=
EXTT15=
EXTT16=
EXTT17=
EXTT18=
EXTT19=
PLAYORDER=
